<svg xmlns="http://www.w3.org/2000/svg" viewBox="0 0 1920 1080"><g transform="
          rotate(58 960 540) 
          translate(-996.057911104177 -560.2825749960996)
          scale(2.037560324066851)
        "><rect width="1920" height="1080" fill="rgb(21, 13, 16)"></rect><g transform="translate(0, 0)"><path fill="rgb(30, 11, 17)" fill-opacity="1" d="M0,75.041L64,95.52C128,115.999,256,156.957,384,200.771C512,244.586,640,291.257,768,280.618C896,269.979,1024,202.03,1152,179.808C1280,157.585,1408,181.088,1536,178.206C1664,175.323,1792,146.055,1856,131.421L1920,116.787L1920,1080L1856,1080C1792,1080,1664,1080,1536,1080C1408,1080,1280,1080,1152,1080C1024,1080,896,1080,768,1080C640,1080,512,1080,384,1080C256,1080,128,1080,64,1080L0,1080Z"></path></g><g transform="translate(0, 360)"><path fill="rgb(24, 7, 13)" fill-opacity="1" d="M0,137.505L64,120.463C128,103.42,256,69.335,384,68.222C512,67.11,640,98.969,768,141.502C896,184.035,1024,237.242,1152,239.866C1280,242.49,1408,194.531,1536,162.757C1664,130.983,1792,115.395,1856,107.6L1920,99.806L1920,720L1856,720C1792,720,1664,720,1536,720C1408,720,1280,720,1152,720C1024,720,896,720,768,720C640,720,512,720,384,720C256,720,128,720,64,720L0,720Z"></path></g><g transform="translate(0, 720)"><path fill="rgb(0, 1, 5)" fill-opacity="1" d="M0,127.608L64,113.252C128,98.897,256,70.185,384,92.915C512,115.644,640,189.815,768,185.599C896,181.383,1024,98.78,1152,84.728C1280,70.676,1408,125.174,1536,126.448C1664,127.721,1792,75.77,1856,49.795L1920,23.819L1920,360L1856,360C1792,360,1664,360,1536,360C1408,360,1280,360,1152,360C1024,360,896,360,768,360C640,360,512,360,384,360C256,360,128,360,64,360L0,360Z"></path></g></g></svg>